<?xml version="1.0" encoding="UTF-8"?>
<svg width="20px" height="20px" viewBox="0 0 20 20" version="1.1" xmlns="http://www.w3.org/2000/svg" xmlns:xlink="http://www.w3.org/1999/xlink">
    <!-- Generator: Sketch 49 (51002) - http://www.bohemiancoding.com/sketch -->
    <title>clock (1)</title>
    <desc>Created with Sketch.</desc>
    <defs></defs>
    <g id="Page-1" stroke="none" stroke-width="1" fill="none" fill-rule="evenodd">
        <g id="Landingpage" transform="translate(-370.000000, -300.000000)" fill="#FFFFFF" fill-rule="nonzero">
            <g id="clock-(1)" transform="translate(370.000000, 300.000000)">
                <path d="M10.6195712,9.73515625 L10.6192203,4.57082031 C10.6192203,4.21722656 10.3330994,3.93085937 9.98050682,3.93085937 C9.62791423,3.93085937 9.34179337,4.21722656 9.34179337,4.57082031 L9.34214425,10 C9.34214425,10.1698828 9.40962963,10.3324609 9.52931774,10.4527344 L12.8729825,13.8029297 C12.9978947,13.9277344 13.1612086,13.9901172 13.3248343,13.9901172 C13.4881481,13.9901172 13.651462,13.9280469 13.7760234,13.8029297 C14.0254971,13.5529688 14.0254971,13.1480859 13.7760234,12.8977734 L10.6195712,9.73515625 Z" id="Shape"></path>
                <path d="M19.9613645,10.0003516 C19.9613645,9.99726563 19.9609357,9.99429688 19.9608967,9.99121094 C19.9559454,4.4809375 15.4808187,0.0003515625 9.98050682,0.0003515625 C4.477154,0.0003515625 0,4.48625 0,10.0003516 C0,15.5144531 4.477154,20 9.98050682,20 C15.4808187,20 19.9559454,15.5197266 19.9608967,10.0094922 C19.9609357,10.0064062 19.9613645,10.0034375 19.9613645,10.0003516 Z M10.6192203,18.696875 L10.6192203,17.7019141 C10.6192203,17.3483203 10.3330994,17.0619531 9.98050682,17.0619531 C9.62791423,17.0619531 9.34179337,17.3483203 9.34179337,17.7019141 L9.34179337,18.696875 C5.05091618,18.3834766 1.61364522,14.9392187 1.30093567,10.6399609 L2.29395712,10.6399609 C2.6468616,10.6399609 2.93267057,10.3539453 2.93267057,10.0003516 C2.93267057,9.64675781 2.6468616,9.36039062 2.29395712,9.36039062 L1.30089669,9.36039062 C1.61348928,5.06097656 5.05079922,1.61683594 9.34179337,1.30347656 L9.34179337,2.2984375 C9.34179337,2.65167969 9.62791423,2.93839844 9.98050682,2.93839844 C10.3334113,2.93839844 10.6192203,2.65171875 10.6192203,2.2984375 L10.6192203,1.30347656 C14.9103704,1.61683594 18.3473684,5.06109375 18.660117,9.36039063 L17.6674464,9.36039063 C17.3145419,9.36039063 17.0283821,9.64640625 17.0283821,10 C17.0283821,10.3535937 17.3145029,10.6399609 17.6674464,10.6399609 L18.660117,10.6399609 C18.3475634,14.939375 14.9104873,18.3835547 10.6192203,18.696875 Z" id="Shape"></path>
            </g>
        </g>
    </g>
</svg>